<svg width="940" height="300" viewBox="0 0 940 300" fill="none" xmlns="http://www.w3.org/2000/svg">
<path d="M331.955 197.303C316.093 227.975 270.881 223.611 261.191 190.473L250.413 153.615C249.888 151.818 247.436 151.581 246.576 153.245L219.171 206.236C224.562 195.811 208.086 141.306 216.045 119.697C231.907 89.0256 277.119 93.3891 286.809 126.527L297.587 163.385C298.112 165.182 300.564 165.419 301.425 163.755L328.829 110.764C323.438 121.189 339.915 175.694 331.955 197.303Z" fill="url(#paint0_linear_2026_40)"/>
<path d="M366.623 130.267L331.955 197.303C339.915 175.694 323.438 121.189 328.829 110.764C334.22 100.339 347.051 96.2537 357.488 101.639C367.925 107.025 372.014 119.842 366.623 130.267Z" fill="url(#paint1_linear_2026_40)"/>
<path d="M181.377 186.733L216.045 119.697C208.086 141.306 224.562 195.811 219.171 206.236C213.78 216.661 200.949 220.746 190.512 215.361C180.075 209.975 175.986 197.158 181.377 186.733Z" fill="url(#paint2_linear_2026_40)"/>
<path d="M418.488 159.896C416.44 159.896 414.861 159.341 413.752 158.232C412.643 157.037 412.088 155.416 412.088 153.368V102.168C412.088 100.035 412.643 98.4133 413.752 97.304C414.861 96.1947 416.397 95.64 418.36 95.64C420.408 95.64 421.944 96.1947 422.968 97.304C424.077 98.4133 424.632 100.035 424.632 102.168V112.152L423.224 109.848C425.101 105.069 428.045 101.485 432.056 99.096C436.067 96.6213 440.675 95.384 445.88 95.384C450.829 95.384 454.925 96.3227 458.168 98.2C461.496 99.992 463.971 102.765 465.592 106.52C467.213 110.189 468.024 114.84 468.024 120.472V153.368C468.024 155.416 467.469 157.037 466.36 158.232C465.251 159.341 463.672 159.896 461.624 159.896C459.491 159.896 457.869 159.341 456.76 158.232C455.651 157.037 455.096 155.416 455.096 153.368V121.24C455.096 115.864 454.029 111.939 451.896 109.464C449.848 106.989 446.605 105.752 442.168 105.752C436.963 105.752 432.781 107.373 429.624 110.616C426.552 113.859 425.016 118.211 425.016 123.672V153.368C425.016 157.72 422.84 159.896 418.488 159.896ZM515.15 160.152C508.323 160.152 502.435 158.872 497.486 156.312C492.622 153.667 488.825 149.955 486.094 145.176C483.449 140.312 482.126 134.552 482.126 127.896C482.126 121.411 483.449 115.736 486.094 110.872C488.739 106.008 492.366 102.211 496.974 99.48C501.582 96.7493 506.83 95.384 512.718 95.384C517.07 95.384 520.953 96.1093 524.366 97.56C527.779 98.9253 530.681 100.973 533.07 103.704C535.545 106.349 537.379 109.592 538.574 113.432C539.854 117.272 540.494 121.581 540.494 126.36C540.494 127.811 540.067 128.92 539.214 129.688C538.361 130.371 537.081 130.712 535.374 130.712H492.366V122.776H531.79L529.614 124.568C529.614 120.301 528.974 116.675 527.694 113.688C526.499 110.701 524.665 108.44 522.19 106.904C519.801 105.283 516.814 104.472 513.23 104.472C509.219 104.472 505.806 105.411 502.99 107.288C500.259 109.165 498.169 111.768 496.718 115.096C495.267 118.424 494.542 122.307 494.542 126.744V127.512C494.542 135.021 496.291 140.696 499.79 144.536C503.374 148.291 508.537 150.168 515.278 150.168C517.838 150.168 520.526 149.827 523.342 149.144C526.243 148.461 528.974 147.309 531.534 145.688C532.985 144.835 534.265 144.451 535.374 144.536C536.569 144.621 537.507 145.005 538.19 145.688C538.958 146.371 539.427 147.224 539.598 148.248C539.769 149.272 539.598 150.339 539.086 151.448C538.574 152.472 537.678 153.411 536.398 154.264C533.497 156.227 530.126 157.72 526.286 158.744C522.446 159.683 518.734 160.152 515.15 160.152ZM577.905 159.896C576.113 159.896 574.534 159.427 573.169 158.488C571.889 157.549 570.822 156.099 569.969 154.136L548.593 104.472C547.91 102.936 547.654 101.485 547.825 100.12C547.996 98.7547 548.636 97.688 549.745 96.92C550.854 96.0667 552.348 95.64 554.225 95.64C555.846 95.64 557.126 96.024 558.065 96.792C559.004 97.56 559.857 98.8827 560.625 100.76L579.953 148.376H576.369L596.081 100.76C596.849 98.8827 597.702 97.56 598.641 96.792C599.665 96.024 601.073 95.64 602.865 95.64C604.401 95.64 605.596 96.0667 606.449 96.92C607.388 97.688 607.942 98.7547 608.113 100.12C608.369 101.4 608.156 102.808 607.473 104.344L585.841 154.136C585.073 156.099 584.006 157.549 582.641 158.488C581.276 159.427 579.697 159.896 577.905 159.896ZM638.931 160.152C634.579 160.152 630.654 159.299 627.155 157.592C623.742 155.885 621.054 153.581 619.091 150.68C617.128 147.779 616.147 144.493 616.147 140.824C616.147 136.216 617.299 132.589 619.603 129.944C621.992 127.213 625.875 125.293 631.251 124.184C636.712 122.989 644.051 122.392 653.267 122.392H659.283V130.328H653.395C647.251 130.328 642.387 130.627 638.803 131.224C635.219 131.821 632.659 132.845 631.123 134.296C629.672 135.661 628.947 137.581 628.947 140.056C628.947 143.299 630.056 145.944 632.275 147.992C634.494 149.955 637.566 150.936 641.491 150.936C644.648 150.936 647.422 150.211 649.811 148.76C652.2 147.224 654.078 145.176 655.443 142.616C656.894 140.056 657.619 137.112 657.619 133.784V119.064C657.619 114.2 656.595 110.701 654.547 108.568C652.499 106.435 649.128 105.368 644.435 105.368C641.704 105.368 638.846 105.709 635.859 106.392C632.958 107.075 629.928 108.227 626.771 109.848C625.32 110.531 624.083 110.744 623.059 110.488C622.035 110.232 621.224 109.677 620.627 108.824C620.03 107.885 619.688 106.904 619.603 105.88C619.603 104.771 619.859 103.704 620.371 102.68C620.968 101.656 621.95 100.888 623.315 100.376C627.07 98.584 630.782 97.304 634.451 96.536C638.12 95.768 641.576 95.384 644.819 95.384C650.536 95.384 655.23 96.28 658.899 98.072C662.654 99.864 665.427 102.595 667.219 106.264C669.011 109.933 669.907 114.669 669.907 120.472V153.368C669.907 155.416 669.395 157.037 668.371 158.232C667.347 159.341 665.854 159.896 663.891 159.896C662.014 159.896 660.52 159.341 659.411 158.232C658.302 157.037 657.747 155.416 657.747 153.368V145.048H658.899C658.216 148.205 656.936 150.936 655.059 153.24C653.267 155.459 651.006 157.165 648.275 158.36C645.544 159.555 642.43 160.152 638.931 160.152Z" fill="white"/>
<path d="M407.288 199.192C406.968 199.192 406.723 199.107 406.552 198.936C406.381 198.765 406.296 198.52 406.296 198.2V185.048H404.024C403.747 185.048 403.523 184.984 403.352 184.856C403.203 184.707 403.128 184.504 403.128 184.248C403.128 184.013 403.203 183.832 403.352 183.704C403.523 183.555 403.747 183.48 404.024 183.48H406.808L406.296 183.992V182.712C406.296 180.749 406.765 179.245 407.704 178.2C408.643 177.155 410.04 176.547 411.896 176.376L412.76 176.312C412.995 176.291 413.176 176.333 413.304 176.44C413.453 176.525 413.549 176.643 413.592 176.792C413.656 176.941 413.667 177.101 413.624 177.272C413.581 177.421 413.496 177.56 413.368 177.688C413.261 177.795 413.123 177.859 412.952 177.88L412.056 177.976C410.733 178.083 409.763 178.52 409.144 179.288C408.547 180.035 408.248 181.123 408.248 182.552V183.928L407.96 183.48H412.056C412.355 183.48 412.579 183.555 412.728 183.704C412.877 183.832 412.952 184.013 412.952 184.248C412.952 184.504 412.877 184.707 412.728 184.856C412.579 184.984 412.355 185.048 412.056 185.048H408.248V198.2C408.248 198.861 407.928 199.192 407.288 199.192ZM420.248 199.256C418.819 199.256 417.709 198.808 416.92 197.912C416.152 197.016 415.768 195.747 415.768 194.104V177.24C415.768 176.899 415.853 176.653 416.024 176.504C416.195 176.333 416.44 176.248 416.76 176.248C417.059 176.248 417.293 176.333 417.464 176.504C417.635 176.653 417.72 176.899 417.72 177.24V193.88C417.72 195.117 417.965 196.045 418.456 196.664C418.947 197.261 419.661 197.56 420.6 197.56C420.813 197.56 420.995 197.549 421.144 197.528C421.293 197.507 421.443 197.496 421.592 197.496C421.784 197.475 421.923 197.517 422.008 197.624C422.115 197.709 422.168 197.901 422.168 198.2C422.168 198.499 422.093 198.723 421.944 198.872C421.795 199.021 421.549 199.128 421.208 199.192C421.059 199.213 420.899 199.224 420.728 199.224C420.579 199.245 420.419 199.256 420.248 199.256ZM430.892 199.256C429.442 199.256 428.183 198.925 427.116 198.264C426.05 197.603 425.218 196.675 424.62 195.48C424.044 194.285 423.756 192.867 423.756 191.224C423.756 190.008 423.916 188.909 424.236 187.928C424.578 186.947 425.058 186.104 425.676 185.4C426.316 184.675 427.074 184.131 427.948 183.768C428.844 183.384 429.826 183.192 430.892 183.192C432.364 183.192 433.634 183.523 434.7 184.184C435.767 184.845 436.588 185.784 437.164 187C437.762 188.195 438.06 189.603 438.06 191.224C438.06 192.461 437.89 193.571 437.548 194.552C437.228 195.533 436.748 196.376 436.108 197.08C435.49 197.784 434.743 198.328 433.868 198.712C432.994 199.075 432.002 199.256 430.892 199.256ZM430.892 197.624C431.959 197.624 432.876 197.379 433.644 196.888C434.434 196.376 435.031 195.64 435.436 194.68C435.863 193.72 436.076 192.568 436.076 191.224C436.076 189.197 435.607 187.629 434.668 186.52C433.751 185.411 432.492 184.856 430.892 184.856C429.847 184.856 428.93 185.112 428.14 185.624C427.372 186.115 426.775 186.84 426.348 187.8C425.943 188.739 425.74 189.88 425.74 191.224C425.74 193.272 426.21 194.851 427.148 195.96C428.087 197.069 429.335 197.624 430.892 197.624ZM447.117 199.192C446.839 199.192 446.583 199.117 446.349 198.968C446.135 198.797 445.954 198.541 445.805 198.2L440.973 184.728C440.866 184.429 440.834 184.173 440.877 183.96C440.941 183.747 441.047 183.576 441.197 183.448C441.367 183.32 441.57 183.256 441.805 183.256C442.061 183.256 442.263 183.32 442.413 183.448C442.562 183.555 442.69 183.768 442.797 184.088L447.533 197.848H446.733L451.661 184.184C451.767 183.864 451.927 183.629 452.141 183.48C452.354 183.331 452.599 183.256 452.877 183.256C453.175 183.256 453.431 183.331 453.645 183.48C453.858 183.629 454.018 183.864 454.125 184.184L458.925 197.848H458.125L462.989 184.056C463.095 183.736 463.223 183.523 463.373 183.416C463.522 183.309 463.725 183.256 463.981 183.256C464.279 183.256 464.493 183.331 464.621 183.48C464.749 183.629 464.813 183.811 464.813 184.024C464.834 184.237 464.802 184.472 464.717 184.728L459.853 198.2C459.725 198.541 459.543 198.797 459.309 198.968C459.095 199.117 458.839 199.192 458.541 199.192C458.263 199.192 458.007 199.117 457.773 198.968C457.538 198.797 457.357 198.541 457.229 198.2L452.269 184.376H453.453L448.461 198.2C448.333 198.541 448.151 198.797 447.917 198.968C447.703 199.117 447.437 199.192 447.117 199.192ZM468.603 191.32C468.368 191.32 468.165 191.245 467.995 191.096C467.824 190.925 467.739 190.723 467.739 190.488C467.739 190.253 467.824 190.061 467.995 189.912C468.165 189.741 468.368 189.656 468.603 189.656H475.995C476.229 189.656 476.421 189.741 476.571 189.912C476.741 190.061 476.827 190.253 476.827 190.488C476.827 190.723 476.741 190.925 476.571 191.096C476.421 191.245 476.229 191.32 475.995 191.32H468.603ZM488.952 199.256C487.501 199.256 486.264 198.883 485.24 198.136C484.216 197.389 483.523 196.387 483.16 195.128L483.512 194.936V198.2C483.512 198.52 483.427 198.765 483.256 198.936C483.085 199.107 482.851 199.192 482.552 199.192C482.232 199.192 481.987 199.107 481.816 198.936C481.645 198.765 481.56 198.52 481.56 198.2V177.24C481.56 176.899 481.645 176.653 481.816 176.504C481.987 176.333 482.232 176.248 482.552 176.248C482.851 176.248 483.085 176.333 483.256 176.504C483.427 176.653 483.512 176.899 483.512 177.24V187.32H483.16C483.523 186.061 484.216 185.059 485.24 184.312C486.264 183.565 487.501 183.192 488.952 183.192C490.36 183.192 491.576 183.523 492.6 184.184C493.624 184.845 494.413 185.773 494.968 186.968C495.544 188.163 495.832 189.581 495.832 191.224C495.832 192.867 495.544 194.296 494.968 195.512C494.413 196.707 493.613 197.635 492.568 198.296C491.544 198.936 490.339 199.256 488.952 199.256ZM488.664 197.624C489.709 197.624 490.616 197.379 491.384 196.888C492.173 196.376 492.781 195.64 493.208 194.68C493.635 193.72 493.848 192.568 493.848 191.224C493.848 189.197 493.379 187.629 492.44 186.52C491.501 185.411 490.243 184.856 488.664 184.856C487.619 184.856 486.701 185.112 485.912 185.624C485.144 186.115 484.547 186.84 484.12 187.8C483.693 188.739 483.48 189.88 483.48 191.224C483.48 193.272 483.949 194.851 484.888 195.96C485.827 197.069 487.085 197.624 488.664 197.624ZM504.766 199.256C503.721 199.256 502.782 199.053 501.95 198.648C501.14 198.243 500.489 197.688 499.998 196.984C499.529 196.28 499.294 195.491 499.294 194.616C499.294 193.464 499.582 192.557 500.158 191.896C500.734 191.235 501.705 190.776 503.07 190.52C504.436 190.243 506.313 190.104 508.702 190.104H510.078V191.544H508.734C506.814 191.544 505.31 191.629 504.222 191.8C503.156 191.949 502.409 192.237 501.982 192.664C501.556 193.091 501.342 193.688 501.342 194.456C501.342 195.416 501.673 196.195 502.334 196.792C502.996 197.389 503.892 197.688 505.022 197.688C505.94 197.688 506.74 197.475 507.422 197.048C508.126 196.6 508.681 195.992 509.086 195.224C509.492 194.456 509.694 193.581 509.694 192.6V188.952C509.694 187.523 509.406 186.488 508.83 185.848C508.254 185.187 507.337 184.856 506.078 184.856C505.268 184.856 504.478 184.963 503.71 185.176C502.964 185.389 502.164 185.731 501.31 186.2C501.076 186.328 500.862 186.371 500.67 186.328C500.5 186.285 500.361 186.2 500.254 186.072C500.169 185.944 500.105 185.795 500.062 185.624C500.041 185.432 500.073 185.251 500.158 185.08C500.244 184.909 500.393 184.771 500.606 184.664C501.502 184.173 502.409 183.811 503.326 183.576C504.265 183.32 505.172 183.192 506.046 183.192C507.305 183.192 508.34 183.405 509.15 183.832C509.982 184.259 510.59 184.899 510.974 185.752C511.38 186.605 511.582 187.704 511.582 189.048V198.2C511.582 198.52 511.508 198.765 511.358 198.936C511.209 199.107 510.985 199.192 510.686 199.192C510.388 199.192 510.153 199.107 509.982 198.936C509.812 198.765 509.726 198.52 509.726 198.2V195.256H510.046C509.854 196.088 509.513 196.803 509.022 197.4C508.532 197.997 507.924 198.456 507.198 198.776C506.473 199.096 505.662 199.256 504.766 199.256ZM521.741 199.256C520.781 199.256 519.821 199.128 518.861 198.872C517.922 198.616 517.026 198.179 516.173 197.56C516.002 197.453 515.885 197.325 515.821 197.176C515.778 197.005 515.768 196.835 515.789 196.664C515.832 196.493 515.906 196.355 516.013 196.248C516.141 196.12 516.29 196.045 516.461 196.024C516.632 196.003 516.813 196.056 517.005 196.184C517.837 196.739 518.648 197.123 519.437 197.336C520.226 197.549 521.016 197.656 521.805 197.656C523.106 197.656 524.098 197.411 524.781 196.92C525.464 196.429 525.805 195.768 525.805 194.936C525.805 194.253 525.581 193.731 525.133 193.368C524.706 192.984 524.002 192.675 523.021 192.44L520.237 191.8C518.893 191.501 517.901 191.021 517.261 190.36C516.621 189.677 516.301 188.803 516.301 187.736C516.301 186.819 516.536 186.019 517.005 185.336C517.496 184.653 518.178 184.131 519.053 183.768C519.949 183.384 520.973 183.192 522.125 183.192C523.064 183.192 523.96 183.331 524.813 183.608C525.666 183.885 526.413 184.312 527.053 184.888C527.224 185.016 527.33 185.165 527.373 185.336C527.437 185.507 527.437 185.677 527.373 185.848C527.33 185.997 527.245 186.125 527.117 186.232C526.989 186.339 526.84 186.392 526.669 186.392C526.498 186.392 526.317 186.328 526.125 186.2C525.506 185.731 524.856 185.389 524.173 185.176C523.49 184.941 522.797 184.824 522.093 184.824C520.856 184.824 519.896 185.08 519.213 185.592C518.552 186.104 518.221 186.797 518.221 187.672C518.221 188.333 518.424 188.867 518.829 189.272C519.256 189.677 519.917 189.987 520.813 190.2L523.597 190.84C524.984 191.16 526.018 191.64 526.701 192.28C527.384 192.899 527.725 193.741 527.725 194.808C527.725 196.173 527.181 197.261 526.093 198.072C525.026 198.861 523.576 199.256 521.741 199.256ZM538.718 199.256C537.118 199.256 535.742 198.936 534.59 198.296C533.438 197.656 532.553 196.739 531.934 195.544C531.316 194.349 531.006 192.931 531.006 191.288C531.006 189.667 531.316 188.259 531.934 187.064C532.553 185.848 533.406 184.899 534.494 184.216C535.604 183.533 536.873 183.192 538.302 183.192C539.348 183.192 540.265 183.373 541.054 183.736C541.865 184.077 542.548 184.579 543.102 185.24C543.678 185.88 544.116 186.669 544.414 187.608C544.713 188.525 544.862 189.571 544.862 190.744C544.862 191.043 544.777 191.267 544.606 191.416C544.457 191.565 544.244 191.64 543.966 191.64H532.414V190.2H543.646L543.134 190.616C543.134 189.379 542.953 188.333 542.59 187.48C542.228 186.605 541.684 185.933 540.958 185.464C540.254 184.995 539.38 184.76 538.334 184.76C537.161 184.76 536.169 185.037 535.358 185.592C534.548 186.125 533.94 186.872 533.534 187.832C533.129 188.771 532.926 189.859 532.926 191.096V191.256C532.926 193.304 533.428 194.883 534.43 195.992C535.433 197.08 536.841 197.624 538.654 197.624C539.444 197.624 540.201 197.517 540.926 197.304C541.673 197.091 542.398 196.728 543.102 196.216C543.316 196.067 543.518 195.992 543.71 195.992C543.924 195.992 544.094 196.045 544.222 196.152C544.372 196.259 544.468 196.397 544.51 196.568C544.574 196.717 544.564 196.888 544.478 197.08C544.414 197.251 544.276 197.411 544.062 197.56C543.38 198.115 542.558 198.541 541.598 198.84C540.638 199.117 539.678 199.256 538.718 199.256ZM554.761 199.256C553.375 199.256 552.159 198.936 551.113 198.296C550.089 197.635 549.289 196.707 548.713 195.512C548.159 194.296 547.881 192.867 547.881 191.224C547.881 189.581 548.159 188.163 548.713 186.968C549.268 185.773 550.057 184.845 551.081 184.184C552.127 183.523 553.353 183.192 554.761 183.192C556.212 183.192 557.449 183.565 558.473 184.312C559.497 185.059 560.18 186.061 560.521 187.32H560.169V177.24C560.169 176.899 560.255 176.653 560.425 176.504C560.596 176.333 560.831 176.248 561.129 176.248C561.449 176.248 561.695 176.333 561.865 176.504C562.036 176.653 562.121 176.899 562.121 177.24V198.2C562.121 198.52 562.036 198.765 561.865 198.936C561.695 199.107 561.46 199.192 561.161 199.192C560.841 199.192 560.596 199.107 560.425 198.936C560.255 198.765 560.169 198.52 560.169 198.2V194.904L560.521 195.128C560.18 196.387 559.497 197.389 558.473 198.136C557.449 198.883 556.212 199.256 554.761 199.256ZM555.017 197.624C556.084 197.624 557.001 197.379 557.769 196.888C558.559 196.376 559.156 195.64 559.561 194.68C559.988 193.72 560.201 192.568 560.201 191.224C560.201 189.197 559.732 187.629 558.793 186.52C557.876 185.411 556.617 184.856 555.017 184.856C553.972 184.856 553.055 185.112 552.265 185.624C551.497 186.115 550.9 186.84 550.473 187.8C550.068 188.739 549.865 189.88 549.865 191.224C549.865 193.272 550.335 194.851 551.273 195.96C552.212 197.069 553.46 197.624 555.017 197.624ZM406.552 248.952C406.232 248.952 405.987 248.867 405.816 248.696C405.645 248.525 405.56 248.28 405.56 247.96V228.28C405.56 227.939 405.645 227.683 405.816 227.512C405.987 227.341 406.232 227.256 406.552 227.256C406.851 227.256 407.085 227.341 407.256 227.512C407.427 227.683 407.512 227.939 407.512 228.28V231.544L407.16 231.352C407.523 230.072 408.216 229.059 409.24 228.312C410.264 227.565 411.501 227.192 412.952 227.192C414.339 227.192 415.544 227.523 416.568 228.184C417.613 228.845 418.413 229.773 418.968 230.968C419.544 232.163 419.832 233.581 419.832 235.224C419.832 236.867 419.544 238.296 418.968 239.512C418.413 240.707 417.624 241.635 416.6 242.296C415.576 242.936 414.36 243.256 412.952 243.256C411.501 243.256 410.264 242.883 409.24 242.136C408.216 241.389 407.523 240.397 407.16 239.16H407.512V247.96C407.512 248.28 407.427 248.525 407.256 248.696C407.085 248.867 406.851 248.952 406.552 248.952ZM412.664 241.624C413.709 241.624 414.616 241.379 415.384 240.888C416.173 240.376 416.781 239.64 417.208 238.68C417.635 237.72 417.848 236.568 417.848 235.224C417.848 233.197 417.379 231.629 416.44 230.52C415.501 229.411 414.243 228.856 412.664 228.856C411.619 228.856 410.701 229.112 409.912 229.624C409.144 230.115 408.547 230.84 408.12 231.8C407.693 232.739 407.48 233.88 407.48 235.224C407.48 237.272 407.949 238.851 408.888 239.96C409.827 241.069 411.085 241.624 412.664 241.624ZM424.958 243.192C424.638 243.192 424.393 243.107 424.222 242.936C424.052 242.765 423.966 242.52 423.966 242.2V228.28C423.966 227.939 424.052 227.683 424.222 227.512C424.393 227.341 424.638 227.256 424.958 227.256C425.257 227.256 425.481 227.341 425.63 227.512C425.801 227.683 425.886 227.939 425.886 228.28V231.128H425.566C425.95 229.869 426.633 228.899 427.614 228.216C428.617 227.533 429.812 227.181 431.198 227.16C431.454 227.139 431.668 227.192 431.838 227.32C432.009 227.448 432.094 227.651 432.094 227.928C432.116 228.227 432.052 228.461 431.902 228.632C431.753 228.781 431.508 228.877 431.166 228.92L430.718 228.952C429.204 229.101 428.03 229.603 427.198 230.456C426.366 231.309 425.95 232.461 425.95 233.912V242.2C425.95 242.52 425.865 242.765 425.694 242.936C425.545 243.107 425.3 243.192 424.958 243.192ZM440.892 243.256C439.442 243.256 438.183 242.925 437.116 242.264C436.05 241.603 435.218 240.675 434.62 239.48C434.044 238.285 433.756 236.867 433.756 235.224C433.756 234.008 433.916 232.909 434.236 231.928C434.578 230.947 435.058 230.104 435.676 229.4C436.316 228.675 437.074 228.131 437.948 227.768C438.844 227.384 439.826 227.192 440.892 227.192C442.364 227.192 443.634 227.523 444.7 228.184C445.767 228.845 446.588 229.784 447.164 231C447.762 232.195 448.06 233.603 448.06 235.224C448.06 236.461 447.89 237.571 447.548 238.552C447.228 239.533 446.748 240.376 446.108 241.08C445.49 241.784 444.743 242.328 443.868 242.712C442.994 243.075 442.002 243.256 440.892 243.256ZM440.892 241.624C441.959 241.624 442.876 241.379 443.644 240.888C444.434 240.376 445.031 239.64 445.436 238.68C445.863 237.72 446.076 236.568 446.076 235.224C446.076 233.197 445.607 231.629 444.668 230.52C443.751 229.411 442.492 228.856 440.892 228.856C439.847 228.856 438.93 229.112 438.14 229.624C437.372 230.115 436.775 230.84 436.348 231.8C435.943 232.739 435.74 233.88 435.74 235.224C435.74 237.272 436.21 238.851 437.148 239.96C438.087 241.069 439.335 241.624 440.892 241.624ZM458.968 249.016C457.816 249.016 456.696 248.867 455.608 248.568C454.542 248.291 453.571 247.832 452.696 247.192C452.526 247.085 452.408 246.947 452.344 246.776C452.302 246.605 452.302 246.435 452.344 246.264C452.387 246.115 452.462 245.976 452.568 245.848C452.696 245.72 452.835 245.645 452.984 245.624C453.155 245.603 453.326 245.635 453.496 245.72C454.435 246.339 455.331 246.765 456.184 247C457.059 247.256 457.966 247.384 458.904 247.384C460.462 247.384 461.646 246.947 462.456 246.072C463.267 245.219 463.672 243.992 463.672 242.392V238.424H463.992C463.672 239.747 462.99 240.781 461.944 241.528C460.899 242.275 459.662 242.648 458.232 242.648C456.803 242.648 455.566 242.328 454.52 241.688C453.475 241.027 452.664 240.12 452.088 238.968C451.534 237.795 451.256 236.44 451.256 234.904C451.256 233.752 451.416 232.707 451.736 231.768C452.056 230.829 452.515 230.019 453.112 229.336C453.731 228.653 454.467 228.131 455.32 227.768C456.174 227.384 457.144 227.192 458.232 227.192C459.662 227.192 460.899 227.576 461.944 228.344C462.99 229.091 463.662 230.104 463.96 231.384L463.64 231.576V228.28C463.64 227.939 463.726 227.683 463.896 227.512C464.067 227.341 464.302 227.256 464.6 227.256C464.92 227.256 465.155 227.341 465.304 227.512C465.475 227.683 465.56 227.939 465.56 228.28V242.104C465.56 244.387 465.006 246.104 463.896 247.256C462.787 248.429 461.144 249.016 458.968 249.016ZM458.456 240.984C459.523 240.984 460.44 240.739 461.208 240.248C461.998 239.736 462.606 239.032 463.032 238.136C463.459 237.219 463.672 236.141 463.672 234.904C463.672 233.048 463.203 231.576 462.264 230.488C461.326 229.4 460.056 228.856 458.456 228.856C457.39 228.856 456.462 229.101 455.672 229.592C454.883 230.083 454.275 230.787 453.848 231.704C453.443 232.6 453.24 233.667 453.24 234.904C453.24 236.76 453.71 238.243 454.648 239.352C455.587 240.44 456.856 240.984 458.456 240.984ZM471.708 243.192C471.388 243.192 471.143 243.107 470.972 242.936C470.802 242.765 470.716 242.52 470.716 242.2V228.28C470.716 227.939 470.802 227.683 470.972 227.512C471.143 227.341 471.388 227.256 471.708 227.256C472.007 227.256 472.231 227.341 472.38 227.512C472.551 227.683 472.636 227.939 472.636 228.28V231.128H472.316C472.7 229.869 473.383 228.899 474.364 228.216C475.367 227.533 476.562 227.181 477.948 227.16C478.204 227.139 478.418 227.192 478.588 227.32C478.759 227.448 478.844 227.651 478.844 227.928C478.866 228.227 478.802 228.461 478.652 228.632C478.503 228.781 478.258 228.877 477.916 228.92L477.468 228.952C475.954 229.101 474.78 229.603 473.948 230.456C473.116 231.309 472.7 232.461 472.7 233.912V242.2C472.7 242.52 472.615 242.765 472.444 242.936C472.295 243.107 472.05 243.192 471.708 243.192ZM486.298 243.256C485.252 243.256 484.314 243.053 483.482 242.648C482.671 242.243 482.02 241.688 481.53 240.984C481.06 240.28 480.826 239.491 480.826 238.616C480.826 237.464 481.114 236.557 481.69 235.896C482.266 235.235 483.236 234.776 484.602 234.52C485.967 234.243 487.844 234.104 490.234 234.104H491.61V235.544H490.266C488.345 235.544 486.842 235.629 485.754 235.8C484.687 235.949 483.94 236.237 483.514 236.664C483.087 237.091 482.874 237.688 482.874 238.456C482.874 239.416 483.204 240.195 483.866 240.792C484.527 241.389 485.423 241.688 486.554 241.688C487.471 241.688 488.271 241.475 488.954 241.048C489.658 240.6 490.212 239.992 490.618 239.224C491.023 238.456 491.226 237.581 491.226 236.6V232.952C491.226 231.523 490.938 230.488 490.362 229.848C489.786 229.187 488.868 228.856 487.61 228.856C486.799 228.856 486.01 228.963 485.242 229.176C484.495 229.389 483.695 229.731 482.842 230.2C482.607 230.328 482.394 230.371 482.202 230.328C482.031 230.285 481.892 230.2 481.786 230.072C481.7 229.944 481.636 229.795 481.594 229.624C481.572 229.432 481.604 229.251 481.69 229.08C481.775 228.909 481.924 228.771 482.138 228.664C483.034 228.173 483.94 227.811 484.858 227.576C485.796 227.32 486.703 227.192 487.578 227.192C488.836 227.192 489.871 227.405 490.682 227.832C491.514 228.259 492.122 228.899 492.506 229.752C492.911 230.605 493.114 231.704 493.114 233.048V242.2C493.114 242.52 493.039 242.765 492.89 242.936C492.74 243.107 492.516 243.192 492.218 243.192C491.919 243.192 491.684 243.107 491.514 242.936C491.343 242.765 491.258 242.52 491.258 242.2V239.256H491.578C491.386 240.088 491.044 240.803 490.554 241.4C490.063 241.997 489.455 242.456 488.73 242.776C488.004 243.096 487.194 243.256 486.298 243.256ZM499.272 243.192C498.952 243.192 498.707 243.107 498.536 242.936C498.366 242.765 498.28 242.52 498.28 242.2V228.28C498.28 227.939 498.366 227.683 498.536 227.512C498.707 227.341 498.952 227.256 499.272 227.256C499.571 227.256 499.795 227.341 499.944 227.512C500.115 227.683 500.2 227.939 500.2 228.28V231.32L499.848 231.096C500.232 229.837 500.883 228.877 501.8 228.216C502.718 227.533 503.816 227.192 505.096 227.192C506.462 227.192 507.55 227.523 508.36 228.184C509.192 228.845 509.736 229.837 509.992 231.16H509.512C509.875 229.965 510.547 229.005 511.528 228.28C512.531 227.555 513.704 227.192 515.048 227.192C516.2 227.192 517.15 227.416 517.896 227.864C518.664 228.312 519.24 228.984 519.624 229.88C520.008 230.755 520.2 231.864 520.2 233.208V242.2C520.2 242.52 520.115 242.765 519.944 242.936C519.774 243.107 519.528 243.192 519.208 243.192C518.91 243.192 518.675 243.107 518.504 242.936C518.334 242.765 518.248 242.52 518.248 242.2V233.368C518.248 231.811 517.971 230.68 517.416 229.976C516.883 229.251 515.976 228.888 514.696 228.888C513.331 228.888 512.243 229.368 511.432 230.328C510.622 231.267 510.216 232.547 510.216 234.168V242.2C510.216 242.52 510.131 242.765 509.96 242.936C509.79 243.107 509.555 243.192 509.256 243.192C508.936 243.192 508.691 243.107 508.52 242.936C508.35 242.765 508.264 242.52 508.264 242.2V233.368C508.264 231.811 507.987 230.68 507.432 229.976C506.899 229.251 506.003 228.888 504.744 228.888C503.358 228.888 502.259 229.368 501.448 230.328C500.638 231.267 500.232 232.547 500.232 234.168V242.2C500.232 242.861 499.912 243.192 499.272 243.192ZM526.366 243.192C526.046 243.192 525.801 243.107 525.63 242.936C525.459 242.765 525.374 242.52 525.374 242.2V228.28C525.374 227.939 525.459 227.683 525.63 227.512C525.801 227.341 526.046 227.256 526.366 227.256C526.665 227.256 526.889 227.341 527.038 227.512C527.209 227.683 527.294 227.939 527.294 228.28V231.32L526.942 231.096C527.326 229.837 527.977 228.877 528.894 228.216C529.811 227.533 530.91 227.192 532.19 227.192C533.555 227.192 534.643 227.523 535.454 228.184C536.286 228.845 536.83 229.837 537.086 231.16H536.606C536.969 229.965 537.641 229.005 538.622 228.28C539.625 227.555 540.798 227.192 542.142 227.192C543.294 227.192 544.243 227.416 544.99 227.864C545.758 228.312 546.334 228.984 546.718 229.88C547.102 230.755 547.294 231.864 547.294 233.208V242.2C547.294 242.52 547.209 242.765 547.038 242.936C546.867 243.107 546.622 243.192 546.302 243.192C546.003 243.192 545.769 243.107 545.598 242.936C545.427 242.765 545.342 242.52 545.342 242.2V233.368C545.342 231.811 545.065 230.68 544.51 229.976C543.977 229.251 543.07 228.888 541.79 228.888C540.425 228.888 539.337 229.368 538.526 230.328C537.715 231.267 537.31 232.547 537.31 234.168V242.2C537.31 242.52 537.225 242.765 537.054 242.936C536.883 243.107 536.649 243.192 536.35 243.192C536.03 243.192 535.785 243.107 535.614 242.936C535.443 242.765 535.358 242.52 535.358 242.2V233.368C535.358 231.811 535.081 230.68 534.526 229.976C533.993 229.251 533.097 228.888 531.838 228.888C530.451 228.888 529.353 229.368 528.542 230.328C527.731 231.267 527.326 232.547 527.326 234.168V242.2C527.326 242.861 527.006 243.192 526.366 243.192ZM553.396 243.128C553.076 243.128 552.83 243.032 552.66 242.84C552.489 242.648 552.404 242.392 552.404 242.072V228.376C552.404 228.035 552.489 227.779 552.66 227.608C552.83 227.437 553.076 227.352 553.396 227.352C553.694 227.352 553.929 227.437 554.1 227.608C554.27 227.779 554.356 228.035 554.356 228.376V242.072C554.356 242.392 554.27 242.648 554.1 242.84C553.95 243.032 553.716 243.128 553.396 243.128ZM553.396 223.48C552.948 223.48 552.596 223.363 552.34 223.128C552.105 222.893 551.988 222.563 551.988 222.136C551.988 221.709 552.105 221.389 552.34 221.176C552.596 220.941 552.948 220.824 553.396 220.824C553.844 220.824 554.185 220.941 554.42 221.176C554.676 221.389 554.804 221.709 554.804 222.136C554.804 222.563 554.676 222.893 554.42 223.128C554.185 223.363 553.844 223.48 553.396 223.48ZM560.49 243.192C560.17 243.192 559.924 243.107 559.754 242.936C559.583 242.765 559.498 242.52 559.498 242.2V228.28C559.498 227.939 559.583 227.683 559.754 227.512C559.924 227.341 560.17 227.256 560.49 227.256C560.788 227.256 561.012 227.341 561.161 227.512C561.332 227.683 561.418 227.939 561.418 228.28V231.288L561.066 231.096C561.492 229.816 562.218 228.845 563.242 228.184C564.287 227.523 565.482 227.192 566.826 227.192C568.063 227.192 569.087 227.416 569.898 227.864C570.73 228.291 571.348 228.952 571.754 229.848C572.159 230.744 572.362 231.864 572.362 233.208V242.2C572.362 242.52 572.276 242.765 572.106 242.936C571.935 243.107 571.7 243.192 571.402 243.192C571.082 243.192 570.836 243.107 570.666 242.936C570.495 242.765 570.41 242.52 570.41 242.2V233.368C570.41 231.811 570.1 230.68 569.482 229.976C568.863 229.251 567.882 228.888 566.538 228.888C565.002 228.888 563.764 229.368 562.826 230.328C561.908 231.267 561.45 232.536 561.45 234.136V242.2C561.45 242.861 561.13 243.192 560.49 243.192ZM584.156 249.016C583.004 249.016 581.884 248.867 580.796 248.568C579.729 248.291 578.758 247.832 577.884 247.192C577.713 247.085 577.596 246.947 577.532 246.776C577.489 246.605 577.489 246.435 577.532 246.264C577.574 246.115 577.649 245.976 577.756 245.848C577.884 245.72 578.022 245.645 578.172 245.624C578.342 245.603 578.513 245.635 578.684 245.72C579.622 246.339 580.518 246.765 581.372 247C582.246 247.256 583.153 247.384 584.092 247.384C585.649 247.384 586.833 246.947 587.644 246.072C588.454 245.219 588.86 243.992 588.86 242.392V238.424H589.18C588.86 239.747 588.177 240.781 587.132 241.528C586.086 242.275 584.849 242.648 583.42 242.648C581.99 242.648 580.753 242.328 579.708 241.688C578.662 241.027 577.852 240.12 577.276 238.968C576.721 237.795 576.444 236.44 576.444 234.904C576.444 233.752 576.604 232.707 576.924 231.768C577.244 230.829 577.702 230.019 578.3 229.336C578.918 228.653 579.654 228.131 580.508 227.768C581.361 227.384 582.332 227.192 583.42 227.192C584.849 227.192 586.086 227.576 587.132 228.344C588.177 229.091 588.849 230.104 589.148 231.384L588.828 231.576V228.28C588.828 227.939 588.913 227.683 589.084 227.512C589.254 227.341 589.489 227.256 589.788 227.256C590.108 227.256 590.342 227.341 590.492 227.512C590.662 227.683 590.748 227.939 590.748 228.28V242.104C590.748 244.387 590.193 246.104 589.084 247.256C587.974 248.429 586.332 249.016 584.156 249.016ZM583.644 240.984C584.71 240.984 585.628 240.739 586.396 240.248C587.185 239.736 587.793 239.032 588.22 238.136C588.646 237.219 588.86 236.141 588.86 234.904C588.86 233.048 588.39 231.576 587.452 230.488C586.513 229.4 585.244 228.856 583.644 228.856C582.577 228.856 581.649 229.101 580.86 229.592C580.07 230.083 579.462 230.787 579.036 231.704C578.63 232.6 578.428 233.667 578.428 234.904C578.428 236.76 578.897 238.243 579.836 239.352C580.774 240.44 582.044 240.984 583.644 240.984ZM608.446 243.256C607.017 243.256 605.908 242.808 605.118 241.912C604.35 241.016 603.966 239.747 603.966 238.104V221.24C603.966 220.899 604.052 220.653 604.222 220.504C604.393 220.333 604.638 220.248 604.958 220.248C605.257 220.248 605.492 220.333 605.662 220.504C605.833 220.653 605.918 220.899 605.918 221.24V237.88C605.918 239.117 606.164 240.045 606.654 240.664C607.145 241.261 607.86 241.56 608.798 241.56C609.012 241.56 609.193 241.549 609.342 241.528C609.492 241.507 609.641 241.496 609.79 241.496C609.982 241.475 610.121 241.517 610.206 241.624C610.313 241.709 610.366 241.901 610.366 242.2C610.366 242.499 610.292 242.723 610.142 242.872C609.993 243.021 609.748 243.128 609.406 243.192C609.257 243.213 609.097 243.224 608.926 243.224C608.777 243.245 608.617 243.256 608.446 243.256ZM617.891 243.256C616.846 243.256 615.907 243.053 615.075 242.648C614.265 242.243 613.614 241.688 613.123 240.984C612.654 240.28 612.419 239.491 612.419 238.616C612.419 237.464 612.707 236.557 613.283 235.896C613.859 235.235 614.83 234.776 616.195 234.52C617.561 234.243 619.438 234.104 621.827 234.104H623.203V235.544H621.859C619.939 235.544 618.435 235.629 617.347 235.8C616.281 235.949 615.534 236.237 615.107 236.664C614.681 237.091 614.467 237.688 614.467 238.456C614.467 239.416 614.798 240.195 615.459 240.792C616.121 241.389 617.017 241.688 618.147 241.688C619.065 241.688 619.865 241.475 620.547 241.048C621.251 240.6 621.806 239.992 622.211 239.224C622.617 238.456 622.819 237.581 622.819 236.6V232.952C622.819 231.523 622.531 230.488 621.955 229.848C621.379 229.187 620.462 228.856 619.203 228.856C618.393 228.856 617.603 228.963 616.835 229.176C616.089 229.389 615.289 229.731 614.435 230.2C614.201 230.328 613.987 230.371 613.795 230.328C613.625 230.285 613.486 230.2 613.379 230.072C613.294 229.944 613.23 229.795 613.187 229.624C613.166 229.432 613.198 229.251 613.283 229.08C613.369 228.909 613.518 228.771 613.731 228.664C614.627 228.173 615.534 227.811 616.451 227.576C617.39 227.32 618.297 227.192 619.171 227.192C620.43 227.192 621.465 227.405 622.275 227.832C623.107 228.259 623.715 228.899 624.099 229.752C624.505 230.605 624.707 231.704 624.707 233.048V242.2C624.707 242.52 624.633 242.765 624.483 242.936C624.334 243.107 624.11 243.192 623.811 243.192C623.513 243.192 623.278 243.107 623.107 242.936C622.937 242.765 622.851 242.52 622.851 242.2V239.256H623.171C622.979 240.088 622.638 240.803 622.147 241.4C621.657 241.997 621.049 242.456 620.323 242.776C619.598 243.096 618.787 243.256 617.891 243.256ZM630.802 243.192C630.482 243.192 630.237 243.107 630.066 242.936C629.895 242.765 629.81 242.52 629.81 242.2V228.28C629.81 227.939 629.895 227.683 630.066 227.512C630.237 227.341 630.482 227.256 630.802 227.256C631.101 227.256 631.325 227.341 631.474 227.512C631.645 227.683 631.73 227.939 631.73 228.28V231.288L631.378 231.096C631.805 229.816 632.53 228.845 633.554 228.184C634.599 227.523 635.794 227.192 637.138 227.192C638.375 227.192 639.399 227.416 640.21 227.864C641.042 228.291 641.661 228.952 642.066 229.848C642.471 230.744 642.674 231.864 642.674 233.208V242.2C642.674 242.52 642.589 242.765 642.418 242.936C642.247 243.107 642.013 243.192 641.714 243.192C641.394 243.192 641.149 243.107 640.978 242.936C640.807 242.765 640.722 242.52 640.722 242.2V233.368C640.722 231.811 640.413 230.68 639.794 229.976C639.175 229.251 638.194 228.888 636.85 228.888C635.314 228.888 634.077 229.368 633.138 230.328C632.221 231.267 631.762 232.536 631.762 234.136V242.2C631.762 242.861 631.442 243.192 630.802 243.192ZM654.468 249.016C653.316 249.016 652.196 248.867 651.108 248.568C650.042 248.291 649.071 247.832 648.196 247.192C648.026 247.085 647.908 246.947 647.844 246.776C647.802 246.605 647.802 246.435 647.844 246.264C647.887 246.115 647.962 245.976 648.068 245.848C648.196 245.72 648.335 245.645 648.484 245.624C648.655 245.603 648.826 245.635 648.996 245.72C649.935 246.339 650.831 246.765 651.684 247C652.559 247.256 653.466 247.384 654.404 247.384C655.962 247.384 657.146 246.947 657.956 246.072C658.767 245.219 659.172 243.992 659.172 242.392V238.424H659.492C659.172 239.747 658.49 240.781 657.444 241.528C656.399 242.275 655.162 242.648 653.732 242.648C652.303 242.648 651.066 242.328 650.02 241.688C648.975 241.027 648.164 240.12 647.588 238.968C647.034 237.795 646.756 236.44 646.756 234.904C646.756 233.752 646.916 232.707 647.236 231.768C647.556 230.829 648.015 230.019 648.612 229.336C649.231 228.653 649.967 228.131 650.82 227.768C651.674 227.384 652.644 227.192 653.732 227.192C655.162 227.192 656.399 227.576 657.444 228.344C658.49 229.091 659.162 230.104 659.46 231.384L659.14 231.576V228.28C659.14 227.939 659.226 227.683 659.396 227.512C659.567 227.341 659.802 227.256 660.1 227.256C660.42 227.256 660.655 227.341 660.804 227.512C660.975 227.683 661.06 227.939 661.06 228.28V242.104C661.06 244.387 660.506 246.104 659.396 247.256C658.287 248.429 656.644 249.016 654.468 249.016ZM653.956 240.984C655.023 240.984 655.94 240.739 656.708 240.248C657.498 239.736 658.106 239.032 658.532 238.136C658.959 237.219 659.172 236.141 659.172 234.904C659.172 233.048 658.703 231.576 657.764 230.488C656.826 229.4 655.556 228.856 653.956 228.856C652.89 228.856 651.962 229.101 651.172 229.592C650.383 230.083 649.775 230.787 649.348 231.704C648.943 232.6 648.74 233.667 648.74 234.904C648.74 236.76 649.21 238.243 650.148 239.352C651.087 240.44 652.356 240.984 653.956 240.984ZM671.688 243.256C670.451 243.256 669.416 243.032 668.584 242.584C667.774 242.136 667.166 241.464 666.76 240.568C666.355 239.672 666.152 238.563 666.152 237.24V228.28C666.152 227.939 666.238 227.683 666.408 227.512C666.579 227.341 666.824 227.256 667.144 227.256C667.443 227.256 667.678 227.341 667.848 227.512C668.019 227.683 668.104 227.939 668.104 228.28V237.144C668.104 238.637 668.414 239.757 669.032 240.504C669.651 241.229 670.622 241.592 671.944 241.592C673.395 241.592 674.568 241.112 675.464 240.152C676.36 239.171 676.808 237.891 676.808 236.312V228.28C676.808 227.939 676.894 227.683 677.064 227.512C677.235 227.341 677.48 227.256 677.8 227.256C678.099 227.256 678.334 227.341 678.504 227.512C678.675 227.683 678.76 227.939 678.76 228.28V242.2C678.76 242.861 678.451 243.192 677.832 243.192C677.534 243.192 677.299 243.107 677.128 242.936C676.958 242.765 676.872 242.52 676.872 242.2V239.032L677.256 239.256C676.851 240.557 676.147 241.549 675.144 242.232C674.142 242.915 672.99 243.256 671.688 243.256ZM688.704 243.256C687.658 243.256 686.72 243.053 685.888 242.648C685.077 242.243 684.426 241.688 683.936 240.984C683.466 240.28 683.232 239.491 683.232 238.616C683.232 237.464 683.52 236.557 684.096 235.896C684.672 235.235 685.642 234.776 687.008 234.52C688.373 234.243 690.25 234.104 692.64 234.104H694.016V235.544H692.672C690.752 235.544 689.248 235.629 688.16 235.8C687.093 235.949 686.346 236.237 685.92 236.664C685.493 237.091 685.28 237.688 685.28 238.456C685.28 239.416 685.61 240.195 686.272 240.792C686.933 241.389 687.829 241.688 688.96 241.688C689.877 241.688 690.677 241.475 691.36 241.048C692.064 240.6 692.618 239.992 693.024 239.224C693.429 238.456 693.632 237.581 693.632 236.6V232.952C693.632 231.523 693.344 230.488 692.768 229.848C692.192 229.187 691.274 228.856 690.016 228.856C689.205 228.856 688.416 228.963 687.648 229.176C686.901 229.389 686.101 229.731 685.248 230.2C685.013 230.328 684.8 230.371 684.608 230.328C684.437 230.285 684.298 230.2 684.192 230.072C684.106 229.944 684.042 229.795 684 229.624C683.978 229.432 684.01 229.251 684.096 229.08C684.181 228.909 684.33 228.771 684.544 228.664C685.44 228.173 686.346 227.811 687.264 227.576C688.202 227.32 689.109 227.192 689.984 227.192C691.242 227.192 692.277 227.405 693.088 227.832C693.92 228.259 694.528 228.899 694.912 229.752C695.317 230.605 695.52 231.704 695.52 233.048V242.2C695.52 242.52 695.445 242.765 695.296 242.936C695.146 243.107 694.922 243.192 694.624 243.192C694.325 243.192 694.09 243.107 693.92 242.936C693.749 242.765 693.664 242.52 693.664 242.2V239.256H693.984C693.792 240.088 693.45 240.803 692.96 241.4C692.469 241.997 691.861 242.456 691.136 242.776C690.41 243.096 689.6 243.256 688.704 243.256ZM707.375 249.016C706.223 249.016 705.103 248.867 704.015 248.568C702.948 248.291 701.977 247.832 701.103 247.192C700.932 247.085 700.815 246.947 700.751 246.776C700.708 246.605 700.708 246.435 700.751 246.264C700.793 246.115 700.868 245.976 700.975 245.848C701.103 245.72 701.241 245.645 701.391 245.624C701.561 245.603 701.732 245.635 701.903 245.72C702.841 246.339 703.737 246.765 704.591 247C705.465 247.256 706.372 247.384 707.311 247.384C708.868 247.384 710.052 246.947 710.863 246.072C711.673 245.219 712.079 243.992 712.079 242.392V238.424H712.399C712.079 239.747 711.396 240.781 710.351 241.528C709.305 242.275 708.068 242.648 706.639 242.648C705.209 242.648 703.972 242.328 702.927 241.688C701.881 241.027 701.071 240.12 700.495 238.968C699.94 237.795 699.663 236.44 699.663 234.904C699.663 233.752 699.823 232.707 700.143 231.768C700.463 230.829 700.921 230.019 701.519 229.336C702.137 228.653 702.873 228.131 703.727 227.768C704.58 227.384 705.551 227.192 706.639 227.192C708.068 227.192 709.305 227.576 710.351 228.344C711.396 229.091 712.068 230.104 712.367 231.384L712.047 231.576V228.28C712.047 227.939 712.132 227.683 712.303 227.512C712.473 227.341 712.708 227.256 713.007 227.256C713.327 227.256 713.561 227.341 713.711 227.512C713.881 227.683 713.967 227.939 713.967 228.28V242.104C713.967 244.387 713.412 246.104 712.303 247.256C711.193 248.429 709.551 249.016 707.375 249.016ZM706.863 240.984C707.929 240.984 708.847 240.739 709.615 240.248C710.404 239.736 711.012 239.032 711.439 238.136C711.865 237.219 712.079 236.141 712.079 234.904C712.079 233.048 711.609 231.576 710.671 230.488C709.732 229.4 708.463 228.856 706.863 228.856C705.796 228.856 704.868 229.101 704.079 229.592C703.289 230.083 702.681 230.787 702.255 231.704C701.849 232.6 701.647 233.667 701.647 234.904C701.647 236.76 702.116 238.243 703.055 239.352C703.993 240.44 705.263 240.984 706.863 240.984ZM725.875 243.256C724.275 243.256 722.899 242.936 721.747 242.296C720.595 241.656 719.709 240.739 719.091 239.544C718.472 238.349 718.163 236.931 718.163 235.288C718.163 233.667 718.472 232.259 719.091 231.064C719.709 229.848 720.563 228.899 721.651 228.216C722.76 227.533 724.029 227.192 725.459 227.192C726.504 227.192 727.421 227.373 728.211 227.736C729.021 228.077 729.704 228.579 730.259 229.24C730.835 229.88 731.272 230.669 731.571 231.608C731.869 232.525 732.019 233.571 732.019 234.744C732.019 235.043 731.933 235.267 731.763 235.416C731.613 235.565 731.4 235.64 731.123 235.64H719.571V234.2H730.803L730.291 234.616C730.291 233.379 730.109 232.333 729.747 231.48C729.384 230.605 728.84 229.933 728.115 229.464C727.411 228.995 726.536 228.76 725.491 228.76C724.317 228.76 723.325 229.037 722.515 229.592C721.704 230.125 721.096 230.872 720.691 231.832C720.285 232.771 720.083 233.859 720.083 235.096V235.256C720.083 237.304 720.584 238.883 721.587 239.992C722.589 241.08 723.997 241.624 725.811 241.624C726.6 241.624 727.357 241.517 728.083 241.304C728.829 241.091 729.555 240.728 730.259 240.216C730.472 240.067 730.675 239.992 730.867 239.992C731.08 239.992 731.251 240.045 731.379 240.152C731.528 240.259 731.624 240.397 731.667 240.568C731.731 240.717 731.72 240.888 731.635 241.08C731.571 241.251 731.432 241.411 731.219 241.56C730.536 242.115 729.715 242.541 728.755 242.84C727.795 243.117 726.835 243.256 725.875 243.256Z" fill="white"/>
<defs>
<linearGradient id="paint0_linear_2026_40" x1="265.636" y1="90.4927" x2="279.273" y2="228.44" gradientUnits="userSpaceOnUse">
<stop stop-color="#3164E6"/>
<stop offset="1" stop-color="#86FFAF"/>
</linearGradient>
<linearGradient id="paint1_linear_2026_40" x1="253.814" y1="111.739" x2="277.674" y2="212.463" gradientUnits="userSpaceOnUse">
<stop stop-color="#86FFAF"/>
<stop offset="1" stop-color="#3164E6"/>
</linearGradient>
<linearGradient id="paint2_linear_2026_40" x1="253.814" y1="111.739" x2="277.674" y2="212.463" gradientUnits="userSpaceOnUse">
<stop stop-color="#86FFAF"/>
<stop offset="1" stop-color="#3164E6"/>
</linearGradient>
</defs>
</svg>
