<svg width="940" height="451" viewBox="0 0 940 451" fill="none" xmlns="http://www.w3.org/2000/svg">
<path d="M379.955 264.303C364.093 294.975 318.881 290.611 309.191 257.473L298.413 220.615C297.888 218.818 295.436 218.581 294.576 220.245L267.171 273.236C272.562 262.811 256.086 208.306 264.045 186.697C279.907 156.026 325.119 160.389 334.809 193.527L345.587 230.385C346.112 232.182 348.564 232.419 349.425 230.755L376.829 177.764C371.438 188.189 387.915 242.694 379.955 264.303Z" fill="url(#paint0_linear_2025_3)"/>
<path d="M414.623 197.267L379.955 264.303C387.915 242.694 371.438 188.189 376.829 177.764C382.22 167.339 395.051 163.254 405.488 168.639C415.925 174.025 420.014 186.842 414.623 197.267Z" fill="url(#paint1_linear_2025_3)"/>
<path d="M229.377 253.733L264.045 186.697C256.086 208.306 272.562 262.811 267.171 273.236C261.78 283.661 248.949 287.746 238.512 282.361C228.075 276.975 223.986 264.158 229.377 253.733Z" fill="url(#paint2_linear_2025_3)"/>
<path d="M451.488 268.896C449.44 268.896 447.861 268.341 446.752 267.232C445.643 266.037 445.088 264.416 445.088 262.368V211.168C445.088 209.035 445.643 207.413 446.752 206.304C447.861 205.195 449.397 204.64 451.36 204.64C453.408 204.64 454.944 205.195 455.968 206.304C457.077 207.413 457.632 209.035 457.632 211.168V221.152L456.224 218.848C458.101 214.069 461.045 210.485 465.056 208.096C469.067 205.621 473.675 204.384 478.88 204.384C483.829 204.384 487.925 205.323 491.168 207.2C494.496 208.992 496.971 211.765 498.592 215.52C500.213 219.189 501.024 223.84 501.024 229.472V262.368C501.024 264.416 500.469 266.037 499.36 267.232C498.251 268.341 496.672 268.896 494.624 268.896C492.491 268.896 490.869 268.341 489.76 267.232C488.651 266.037 488.096 264.416 488.096 262.368V230.24C488.096 224.864 487.029 220.939 484.896 218.464C482.848 215.989 479.605 214.752 475.168 214.752C469.963 214.752 465.781 216.373 462.624 219.616C459.552 222.859 458.016 227.211 458.016 232.672V262.368C458.016 266.72 455.84 268.896 451.488 268.896ZM548.15 269.152C541.323 269.152 535.435 267.872 530.486 265.312C525.622 262.667 521.825 258.955 519.094 254.176C516.449 249.312 515.126 243.552 515.126 236.896C515.126 230.411 516.449 224.736 519.094 219.872C521.739 215.008 525.366 211.211 529.974 208.48C534.582 205.749 539.83 204.384 545.718 204.384C550.07 204.384 553.953 205.109 557.366 206.56C560.779 207.925 563.681 209.973 566.07 212.704C568.545 215.349 570.379 218.592 571.574 222.432C572.854 226.272 573.494 230.581 573.494 235.36C573.494 236.811 573.067 237.92 572.214 238.688C571.361 239.371 570.081 239.712 568.374 239.712H525.366V231.776H564.79L562.614 233.568C562.614 229.301 561.974 225.675 560.694 222.688C559.499 219.701 557.665 217.44 555.19 215.904C552.801 214.283 549.814 213.472 546.23 213.472C542.219 213.472 538.806 214.411 535.99 216.288C533.259 218.165 531.169 220.768 529.718 224.096C528.267 227.424 527.542 231.307 527.542 235.744V236.512C527.542 244.021 529.291 249.696 532.79 253.536C536.374 257.291 541.537 259.168 548.278 259.168C550.838 259.168 553.526 258.827 556.342 258.144C559.243 257.461 561.974 256.309 564.534 254.688C565.985 253.835 567.265 253.451 568.374 253.536C569.569 253.621 570.507 254.005 571.19 254.688C571.958 255.371 572.427 256.224 572.598 257.248C572.769 258.272 572.598 259.339 572.086 260.448C571.574 261.472 570.678 262.411 569.398 263.264C566.497 265.227 563.126 266.72 559.286 267.744C555.446 268.683 551.734 269.152 548.15 269.152ZM610.905 268.896C609.113 268.896 607.534 268.427 606.169 267.488C604.889 266.549 603.822 265.099 602.969 263.136L581.593 213.472C580.91 211.936 580.654 210.485 580.825 209.12C580.996 207.755 581.636 206.688 582.745 205.92C583.854 205.067 585.348 204.64 587.225 204.64C588.846 204.64 590.126 205.024 591.065 205.792C592.004 206.56 592.857 207.883 593.625 209.76L612.953 257.376H609.369L629.081 209.76C629.849 207.883 630.702 206.56 631.641 205.792C632.665 205.024 634.073 204.64 635.865 204.64C637.401 204.64 638.596 205.067 639.449 205.92C640.388 206.688 640.942 207.755 641.113 209.12C641.369 210.4 641.156 211.808 640.473 213.344L618.841 263.136C618.073 265.099 617.006 266.549 615.641 267.488C614.276 268.427 612.697 268.896 610.905 268.896ZM671.931 269.152C667.579 269.152 663.654 268.299 660.155 266.592C656.742 264.885 654.054 262.581 652.091 259.68C650.128 256.779 649.147 253.493 649.147 249.824C649.147 245.216 650.299 241.589 652.603 238.944C654.992 236.213 658.875 234.293 664.251 233.184C669.712 231.989 677.051 231.392 686.267 231.392H692.283V239.328H686.395C680.251 239.328 675.387 239.627 671.803 240.224C668.219 240.821 665.659 241.845 664.123 243.296C662.672 244.661 661.947 246.581 661.947 249.056C661.947 252.299 663.056 254.944 665.275 256.992C667.494 258.955 670.566 259.936 674.491 259.936C677.648 259.936 680.422 259.211 682.811 257.76C685.2 256.224 687.078 254.176 688.443 251.616C689.894 249.056 690.619 246.112 690.619 242.784V228.064C690.619 223.2 689.595 219.701 687.547 217.568C685.499 215.435 682.128 214.368 677.435 214.368C674.704 214.368 671.846 214.709 668.859 215.392C665.958 216.075 662.928 217.227 659.771 218.848C658.32 219.531 657.083 219.744 656.059 219.488C655.035 219.232 654.224 218.677 653.627 217.824C653.03 216.885 652.688 215.904 652.603 214.88C652.603 213.771 652.859 212.704 653.371 211.68C653.968 210.656 654.95 209.888 656.315 209.376C660.07 207.584 663.782 206.304 667.451 205.536C671.12 204.768 674.576 204.384 677.819 204.384C683.536 204.384 688.23 205.28 691.899 207.072C695.654 208.864 698.427 211.595 700.219 215.264C702.011 218.933 702.907 223.669 702.907 229.472V262.368C702.907 264.416 702.395 266.037 701.371 267.232C700.347 268.341 698.854 268.896 696.891 268.896C695.014 268.896 693.52 268.341 692.411 267.232C691.302 266.037 690.747 264.416 690.747 262.368V254.048H691.899C691.216 257.205 689.936 259.936 688.059 262.24C686.267 264.459 684.006 266.165 681.275 267.36C678.544 268.555 675.43 269.152 671.931 269.152Z" fill="black"/>
<defs>
<linearGradient id="paint0_linear_2025_3" x1="313.636" y1="157.493" x2="327.273" y2="295.44" gradientUnits="userSpaceOnUse">
<stop stop-color="#3164E6"/>
<stop offset="1" stop-color="#86FFAF"/>
</linearGradient>
<linearGradient id="paint1_linear_2025_3" x1="301.814" y1="178.739" x2="325.674" y2="279.463" gradientUnits="userSpaceOnUse">
<stop stop-color="#86FFAF"/>
<stop offset="1" stop-color="#3164E6"/>
</linearGradient>
<linearGradient id="paint2_linear_2025_3" x1="301.814" y1="178.739" x2="325.674" y2="279.463" gradientUnits="userSpaceOnUse">
<stop stop-color="#86FFAF"/>
<stop offset="1" stop-color="#3164E6"/>
</linearGradient>
</defs>
</svg>
