<svg width="940" height="451" viewBox="0 0 940 451" fill="none" xmlns="http://www.w3.org/2000/svg">
<rect width="940" height="451" fill="black"/>
<path d="M380.955 265.303C365.093 295.975 319.881 291.611 310.191 258.473L299.413 221.615C298.888 219.818 296.436 219.581 295.576 221.245L268.171 274.236C273.562 263.811 257.086 209.306 265.045 187.697C280.907 157.026 326.119 161.389 335.809 194.527L346.587 231.385C347.112 233.182 349.564 233.419 350.425 231.755L377.829 178.764C372.438 189.189 388.915 243.694 380.955 265.303Z" fill="url(#paint0_linear_2026_40)"/>
<path d="M415.623 198.267L380.955 265.303C388.915 243.694 372.438 189.189 377.829 178.764C383.22 168.339 396.051 164.254 406.488 169.639C416.925 175.025 421.014 187.842 415.623 198.267Z" fill="url(#paint1_linear_2026_40)"/>
<path d="M230.377 254.733L265.045 187.697C257.086 209.306 273.562 263.811 268.171 274.236C262.78 284.661 249.949 288.746 239.512 283.361C229.075 277.975 224.986 265.158 230.377 254.733Z" fill="url(#paint2_linear_2026_40)"/>
<path d="M452.488 269.896C450.44 269.896 448.861 269.341 447.752 268.232C446.643 267.037 446.088 265.416 446.088 263.368V212.168C446.088 210.035 446.643 208.413 447.752 207.304C448.861 206.195 450.397 205.64 452.36 205.64C454.408 205.64 455.944 206.195 456.968 207.304C458.077 208.413 458.632 210.035 458.632 212.168V222.152L457.224 219.848C459.101 215.069 462.045 211.485 466.056 209.096C470.067 206.621 474.675 205.384 479.88 205.384C484.829 205.384 488.925 206.323 492.168 208.2C495.496 209.992 497.971 212.765 499.592 216.52C501.213 220.189 502.024 224.84 502.024 230.472V263.368C502.024 265.416 501.469 267.037 500.36 268.232C499.251 269.341 497.672 269.896 495.624 269.896C493.491 269.896 491.869 269.341 490.76 268.232C489.651 267.037 489.096 265.416 489.096 263.368V231.24C489.096 225.864 488.029 221.939 485.896 219.464C483.848 216.989 480.605 215.752 476.168 215.752C470.963 215.752 466.781 217.373 463.624 220.616C460.552 223.859 459.016 228.211 459.016 233.672V263.368C459.016 267.72 456.84 269.896 452.488 269.896ZM549.15 270.152C542.323 270.152 536.435 268.872 531.486 266.312C526.622 263.667 522.825 259.955 520.094 255.176C517.449 250.312 516.126 244.552 516.126 237.896C516.126 231.411 517.449 225.736 520.094 220.872C522.739 216.008 526.366 212.211 530.974 209.48C535.582 206.749 540.83 205.384 546.718 205.384C551.07 205.384 554.953 206.109 558.366 207.56C561.779 208.925 564.681 210.973 567.07 213.704C569.545 216.349 571.379 219.592 572.574 223.432C573.854 227.272 574.494 231.581 574.494 236.36C574.494 237.811 574.067 238.92 573.214 239.688C572.361 240.371 571.081 240.712 569.374 240.712H526.366V232.776H565.79L563.614 234.568C563.614 230.301 562.974 226.675 561.694 223.688C560.499 220.701 558.665 218.44 556.19 216.904C553.801 215.283 550.814 214.472 547.23 214.472C543.219 214.472 539.806 215.411 536.99 217.288C534.259 219.165 532.169 221.768 530.718 225.096C529.267 228.424 528.542 232.307 528.542 236.744V237.512C528.542 245.021 530.291 250.696 533.79 254.536C537.374 258.291 542.537 260.168 549.278 260.168C551.838 260.168 554.526 259.827 557.342 259.144C560.243 258.461 562.974 257.309 565.534 255.688C566.985 254.835 568.265 254.451 569.374 254.536C570.569 254.621 571.507 255.005 572.19 255.688C572.958 256.371 573.427 257.224 573.598 258.248C573.769 259.272 573.598 260.339 573.086 261.448C572.574 262.472 571.678 263.411 570.398 264.264C567.497 266.227 564.126 267.72 560.286 268.744C556.446 269.683 552.734 270.152 549.15 270.152ZM611.905 269.896C610.113 269.896 608.534 269.427 607.169 268.488C605.889 267.549 604.822 266.099 603.969 264.136L582.593 214.472C581.91 212.936 581.654 211.485 581.825 210.12C581.996 208.755 582.636 207.688 583.745 206.92C584.854 206.067 586.348 205.64 588.225 205.64C589.846 205.64 591.126 206.024 592.065 206.792C593.004 207.56 593.857 208.883 594.625 210.76L613.953 258.376H610.369L630.081 210.76C630.849 208.883 631.702 207.56 632.641 206.792C633.665 206.024 635.073 205.64 636.865 205.64C638.401 205.64 639.596 206.067 640.449 206.92C641.388 207.688 641.942 208.755 642.113 210.12C642.369 211.4 642.156 212.808 641.473 214.344L619.841 264.136C619.073 266.099 618.006 267.549 616.641 268.488C615.276 269.427 613.697 269.896 611.905 269.896ZM672.931 270.152C668.579 270.152 664.654 269.299 661.155 267.592C657.742 265.885 655.054 263.581 653.091 260.68C651.128 257.779 650.147 254.493 650.147 250.824C650.147 246.216 651.299 242.589 653.603 239.944C655.992 237.213 659.875 235.293 665.251 234.184C670.712 232.989 678.051 232.392 687.267 232.392H693.283V240.328H687.395C681.251 240.328 676.387 240.627 672.803 241.224C669.219 241.821 666.659 242.845 665.123 244.296C663.672 245.661 662.947 247.581 662.947 250.056C662.947 253.299 664.056 255.944 666.275 257.992C668.494 259.955 671.566 260.936 675.491 260.936C678.648 260.936 681.422 260.211 683.811 258.76C686.2 257.224 688.078 255.176 689.443 252.616C690.894 250.056 691.619 247.112 691.619 243.784V229.064C691.619 224.2 690.595 220.701 688.547 218.568C686.499 216.435 683.128 215.368 678.435 215.368C675.704 215.368 672.846 215.709 669.859 216.392C666.958 217.075 663.928 218.227 660.771 219.848C659.32 220.531 658.083 220.744 657.059 220.488C656.035 220.232 655.224 219.677 654.627 218.824C654.03 217.885 653.688 216.904 653.603 215.88C653.603 214.771 653.859 213.704 654.371 212.68C654.968 211.656 655.95 210.888 657.315 210.376C661.07 208.584 664.782 207.304 668.451 206.536C672.12 205.768 675.576 205.384 678.819 205.384C684.536 205.384 689.23 206.28 692.899 208.072C696.654 209.864 699.427 212.595 701.219 216.264C703.011 219.933 703.907 224.669 703.907 230.472V263.368C703.907 265.416 703.395 267.037 702.371 268.232C701.347 269.341 699.854 269.896 697.891 269.896C696.014 269.896 694.52 269.341 693.411 268.232C692.302 267.037 691.747 265.416 691.747 263.368V255.048H692.899C692.216 258.205 690.936 260.936 689.059 263.24C687.267 265.459 685.006 267.165 682.275 268.36C679.544 269.555 676.43 270.152 672.931 270.152Z" fill="white"/>
<defs>
<linearGradient id="paint0_linear_2026_40" x1="314.636" y1="158.493" x2="328.273" y2="296.44" gradientUnits="userSpaceOnUse">
<stop stop-color="#3164E6"/>
<stop offset="1" stop-color="#86FFAF"/>
</linearGradient>
<linearGradient id="paint1_linear_2026_40" x1="302.814" y1="179.739" x2="326.674" y2="280.463" gradientUnits="userSpaceOnUse">
<stop stop-color="#86FFAF"/>
<stop offset="1" stop-color="#3164E6"/>
</linearGradient>
<linearGradient id="paint2_linear_2026_40" x1="302.814" y1="179.739" x2="326.674" y2="280.463" gradientUnits="userSpaceOnUse">
<stop stop-color="#86FFAF"/>
<stop offset="1" stop-color="#3164E6"/>
</linearGradient>
</defs>
</svg>
